<svg width="24" height="24" viewBox="0 0 24 24" fill="none" xmlns="http://www.w3.org/2000/svg">
<path fill-rule="evenodd" clip-rule="evenodd" d="M22 15.244C22 15.655 21.666 15.99 21.254 15.99H20V10.99H21.264C21.67 10.99 22 11.32 22 11.726V15.244ZM12.786 8.374C11.313 7.557 10.988 5.837 10.986 5.826C10.91 5.369 10.531 5.024 10.069 4.992C10.045 4.991 10.022 4.99 10 4.99C9.565 4.99 9.177 5.272 9.045 5.692C8.361 7.883 6.186 7.985 6.009 7.99C6.178 4.656 8.801 2 12 2C15.239 2 17.886 4.723 17.997 8.114C15.782 8.976 14.029 9.065 12.786 8.374ZM4 15.99H2.746C2.334 15.99 2 15.66 2 15.254V11.726C2 11.32 2.334 10.99 2.746 10.99H4V15.99ZM21.264 8.99H20V8.334C20 3.738 16.411 0 12 0C7.589 0 4 3.738 4 8.334V8.99H2.746C1.231 8.99 0 10.218 0 11.726V15.254C0 16.763 1.231 17.99 2.746 17.99H4.397C5.032 19.98 6.676 21.287 9.101 21.723C9.43 23.024 10.598 23.99 12 23.99C13.519 23.99 14.761 22.857 14.959 21.393C14.986 21.263 15 21.128 15 20.99C15 20.852 14.986 20.718 14.959 20.587C14.761 19.123 13.519 17.99 12 17.99C10.721 17.99 9.637 18.794 9.206 19.922C7.705 19.612 6 18.805 6 16.994V16.99V9.99C6.952 9.99 8.647 9.584 9.855 8.244C10.274 8.909 10.89 9.602 11.787 10.106C12.646 10.591 13.629 10.832 14.73 10.832C15.724 10.832 16.82 10.623 18 10.229V15.99C18 17.21 17.63 18.42 16.66 19.181C16.83 19.61 16.94 20.06 16.97 20.53C16.99 20.681 17 20.83 17 20.99C17 21.15 16.99 21.31 16.97 21.471C18.467 20.877 19.401 19.71 19.786 17.99H21.254C22.769 17.99 24 16.759 24 15.244V11.726C24 10.218 22.773 8.99 21.264 8.99Z" fill="#31313D"/>
</svg>
