<svg width="254" height="53" viewBox="0 0 254 53" fill="none" xmlns="http://www.w3.org/2000/svg">
<path d="M0 26.5C0 37.8471 7.08338 47.5132 17.0793 51.2956V1.70441C7.08338 5.48679 0 15.1529 0 26.5Z" fill="#DC1928"/>
<path d="M26.4461 0C25.7238 0 24.9782 0.023348 24.2792 0.0700441V1.93789H24.419C34.4848 2.00793 42.5934 9.71278 42.5235 19.1454C42.4536 28.5313 34.2984 36.096 24.2792 36.0727V52.9066C25.0015 52.9766 25.7238 53 26.4461 53C41.0556 53 52.8923 41.1392 52.8923 26.5C52.8923 11.8608 41.0556 0 26.4461 0Z" fill="#DC1928"/>
<path d="M89.4498 16.21V33.25H92.4258V27.25H96.5538C100.226 27.25 102.53 25.186 102.53 21.706C102.53 18.298 100.25 16.21 96.5538 16.21H89.4498ZM96.0498 24.826H92.4258V18.634H96.0498C98.2098 18.634 99.5058 19.522 99.5058 21.706C99.5058 23.962 98.2098 24.826 96.0498 24.826ZM114.499 29.554H111.691C111.283 30.634 110.467 31.33 108.979 31.33C107.083 31.33 105.859 29.962 105.811 27.682H114.595V27.01C114.595 23.05 112.411 20.482 108.859 20.482C105.355 20.482 102.931 23.05 102.931 27.01C102.931 30.97 105.307 33.538 108.979 33.538C111.955 33.538 113.899 31.666 114.499 29.554ZM108.859 22.69C110.563 22.69 111.571 23.866 111.739 25.738H105.859C106.075 23.794 107.227 22.69 108.859 22.69ZM115.611 27.01C115.611 30.97 117.987 33.538 121.539 33.538C125.067 33.538 127.467 30.97 127.467 27.01C127.467 23.05 125.067 20.482 121.539 20.482C117.987 20.482 115.611 23.05 115.611 27.01ZM124.587 26.482V27.514C124.587 29.89 123.363 31.282 121.539 31.282C119.691 31.282 118.491 29.89 118.491 27.514V26.482C118.491 24.106 119.691 22.738 121.539 22.738C123.363 22.738 124.587 24.106 124.587 26.482ZM132.078 31.57C132.774 32.722 134.166 33.538 135.774 33.538C138.798 33.538 140.934 30.97 140.934 27.01C140.934 23.05 138.798 20.482 135.774 20.482C134.166 20.482 132.774 21.298 132.078 22.45H131.982V20.77H129.15V37.33H131.982V31.57H132.078ZM131.982 27.658V26.362C131.982 24.154 133.206 22.738 135.006 22.738C136.926 22.738 138.054 24.106 138.054 26.554V27.49C138.054 29.938 136.926 31.282 135.006 31.282C133.206 31.282 131.982 29.866 131.982 27.658ZM146.083 33.25H147.403V30.97H146.563C145.675 30.97 145.363 30.49 145.363 29.674V15.49H142.531V29.914C142.531 31.954 143.827 33.25 146.083 33.25ZM159.851 29.554H157.043C156.635 30.634 155.819 31.33 154.331 31.33C152.435 31.33 151.211 29.962 151.163 27.682H159.947V27.01C159.947 23.05 157.763 20.482 154.211 20.482C150.707 20.482 148.283 23.05 148.283 27.01C148.283 30.97 150.659 33.538 154.331 33.538C157.307 33.538 159.251 31.666 159.851 29.554ZM154.211 22.69C155.915 22.69 156.923 23.866 157.091 25.738H151.211C151.427 23.794 152.579 22.69 154.211 22.69ZM164.826 28.042C165.114 31.114 167.418 33.538 171.858 33.538C175.674 33.538 178.362 31.498 178.362 28.114C178.362 25.594 176.874 23.866 174.018 23.554L170.826 23.218C168.906 23.026 168.162 22.306 168.162 20.962C168.162 19.282 169.578 18.298 171.522 18.298C173.49 18.298 174.666 19.21 174.978 20.722H177.978C177.642 18.394 175.698 15.922 171.594 15.922C167.778 15.922 165.21 18.154 165.21 21.25C165.21 23.962 166.794 25.45 169.674 25.762L172.866 26.098C174.69 26.29 175.386 27.034 175.386 28.474C175.386 30.322 173.874 31.138 171.786 31.138C169.386 31.138 168.114 29.914 167.826 28.042H164.826ZM190.905 29.554H188.097C187.689 30.634 186.873 31.33 185.385 31.33C183.489 31.33 182.265 29.962 182.217 27.682H191.001V27.01C191.001 23.05 188.817 20.482 185.265 20.482C181.761 20.482 179.337 23.05 179.337 27.01C179.337 30.97 181.713 33.538 185.385 33.538C188.361 33.538 190.305 31.666 190.905 29.554ZM185.265 22.69C186.969 22.69 187.977 23.866 188.145 25.738H182.265C182.481 23.794 183.633 22.69 185.265 22.69ZM195.521 26.602C195.521 24.346 196.457 23.41 198.401 23.41H199.625V20.77H198.281C197.225 20.77 196.217 21.274 195.617 22.618H195.521V20.77H192.689V33.25H195.521V26.602ZM199.947 20.77L204.531 33.25H207.963L212.523 20.77H209.643L206.307 30.178L202.947 20.77H199.947ZM213.189 17.074C213.189 18.058 213.957 18.85 214.965 18.85C215.949 18.85 216.741 18.058 216.741 17.074C216.741 16.066 215.949 15.298 214.965 15.298C213.957 15.298 213.189 16.066 213.189 17.074ZM213.549 20.77V33.25H216.381V20.77H213.549ZM218.056 27.01C218.056 30.97 220.384 33.538 223.936 33.538C227.032 33.538 229.024 31.522 229.384 29.098H226.552C226.288 30.394 225.448 31.282 223.936 31.282C222.136 31.282 220.936 29.914 220.936 27.538V26.506C220.936 24.13 222.136 22.738 223.936 22.738C225.352 22.738 226.288 23.506 226.528 24.874H229.36C229 22.378 227.032 20.482 223.936 20.482C220.384 20.482 218.056 23.05 218.056 27.01ZM241.835 29.554H239.027C238.619 30.634 237.803 31.33 236.315 31.33C234.419 31.33 233.195 29.962 233.147 27.682H241.931V27.01C241.931 23.05 239.747 20.482 236.195 20.482C232.691 20.482 230.267 23.05 230.267 27.01C230.267 30.97 232.643 33.538 236.315 33.538C239.291 33.538 241.235 31.666 241.835 29.554ZM236.195 22.69C237.899 22.69 238.907 23.866 239.075 25.738H233.195C233.411 23.794 234.563 22.69 236.195 22.69ZM242.899 29.698C243.139 31.858 244.891 33.538 248.227 33.538C251.107 33.538 253.315 31.978 253.315 29.41C253.315 27.37 252.331 26.218 249.907 25.93L247.747 25.666C246.355 25.498 245.899 24.994 245.899 24.226C245.899 23.218 246.763 22.546 248.107 22.546C249.427 22.546 250.147 23.218 250.291 24.202H253.075C252.931 22.378 251.347 20.482 248.155 20.482C245.131 20.482 243.163 22.186 243.163 24.538C243.163 26.458 244.171 27.682 246.667 27.994L248.851 28.258C250.171 28.402 250.531 28.93 250.531 29.77C250.531 30.85 249.715 31.474 248.251 31.474C246.691 31.474 245.947 30.778 245.755 29.698H242.899Z" fill="#212129"/>
<line x1="71.0232" y1="11.7778" x2="71.0232" y2="41.2223" stroke="#212129"/>
</svg>
