<svg width="24" height="24" viewBox="0 0 24 24" fill="none" xmlns="http://www.w3.org/2000/svg">
<path fill-rule="evenodd" clip-rule="evenodd" d="M24 23.1696L16.638 17.28H2.5C1.121 17.28 0 16.2029 0 14.88V0H21.5C22.879 0 24 1.07712 24 2.4V23.1696ZM2 1.92V14.88C2 15.145 2.225 15.36 2.5 15.36H17.362L22 19.0704V2.4C22 2.13504 21.775 1.92 21.5 1.92H2ZM9 8C9 9.10457 8.10457 10 7 10C5.89543 10 5 9.10457 5 8C5 6.89543 5.89543 6 7 6C8.10457 6 9 6.89543 9 8ZM12 10C13.1046 10 14 9.10457 14 8C14 6.89543 13.1046 6 12 6C10.8954 6 10 6.89543 10 8C10 9.10457 10.8954 10 12 10ZM19 8C19 9.10457 18.1046 10 17 10C15.8954 10 15 9.10457 15 8C15 6.89543 15.8954 6 17 6C18.1046 6 19 6.89543 19 8Z" fill="#31313D"/>
</svg>
