<svg width="25" height="24" viewBox="0 0 25 24" fill="none" xmlns="http://www.w3.org/2000/svg">
<path fill-rule="evenodd" clip-rule="evenodd" d="M10.7734 3.28297V2C10.7734 0.726154 11.7862 0 13.0207 0H22.0292C23.9666 0 25 0.157959 25 2V18H18.6991C18.3996 17.5667 18.0481 17.1691 17.6476 16.8142C17.2809 16.4899 16.8595 16.2216 16.4064 16H22.9167V3C22.9447 2.57151 22.7477 2.05915 21.875 2H13.5417C12.8067 2 12.5 2.31991 12.5 3V4.09615C11.9715 3.74654 11.3918 3.47056 10.7734 3.28297ZM8.85417 15C11.1878 15 13.5417 13.4538 13.5417 9.99949C13.5417 7.51096 12.0915 5 8.85316 5C6.51953 5 4.16667 6.54615 4.16667 9.99949C4.16667 12.489 5.61684 15 8.85417 15ZM8.92168 17.8594C11.3937 17.8594 13.2552 18.3016 14.1628 19.1046C15.0405 19.8828 15.5961 20.9471 15.7764 22.1933H2.06694C2.2473 20.9471 2.80286 19.8828 3.68056 19.1046C4.58816 18.3016 6.44965 17.8594 8.92168 17.8594ZM15.5642 17.8142C13.7596 16.2182 10.6289 15.9791 8.92168 15.9791C7.21451 15.9791 4.08372 16.2182 2.27913 17.8142C0.810185 19.1157 0 20.9923 0 23.097V23.9997H17.8434V23.097C17.8434 20.9923 17.0332 19.1157 15.5642 17.8142ZM6.2645 10.0066C6.2645 11.8294 7.28623 13.0071 8.86867 13.0071C10.4511 13.0071 11.4728 11.8294 11.4728 10.0066C11.4728 8.18485 10.4511 7.00714 8.86867 7.00714C7.28623 7.00714 6.2645 8.18485 6.2645 10.0066ZM18.5007 6.67793V8.2825C19.5753 8.50907 20.4613 8.83686 20.4613 9.82671C20.4613 10.7497 19.701 11.37 18.5007 11.4777V12.4286H17.8468V11.4731C16.865 11.4071 16.0612 11.0209 15.625 10.3597L16.3756 9.96229C16.7035 10.4201 17.2219 10.6903 17.8468 10.7664V9.00586C16.6542 8.76721 15.892 8.40507 15.892 7.46907C15.892 6.58043 16.6561 5.99729 17.8468 5.93971V5H18.5007V5.97036C19.2571 6.06321 19.8964 6.36779 20.324 6.87757L19.6246 7.30193C19.3422 6.97971 18.9533 6.768 18.5007 6.67793ZM18.5008 9.13492V10.7664C19.1266 10.6884 19.5183 10.3931 19.5183 9.93442C19.5183 9.44228 19.0966 9.26399 18.5008 9.13492ZM17.8473 6.64357C17.2099 6.68257 16.8355 6.94164 16.8355 7.38642C16.8355 7.85257 17.2776 8.01878 17.8473 8.14599V6.64357Z" fill="#31313D"/>
</svg>
