<svg width="24" height="24" viewBox="0 0 24 24" fill="none" xmlns="http://www.w3.org/2000/svg">
<path fill-rule="evenodd" clip-rule="evenodd" d="M21.5 18.5897H2.5C2.225 18.5897 2 18.3705 2 18.1025V7.0046L11.367 14.4721C11.551 14.6192 11.775 14.6923 12 14.6923C12.225 14.6923 12.449 14.6192 12.633 14.4721L22 7.0046V18.1025C22 18.3705 21.775 18.5897 21.5 18.5897ZM21.421 4.94872L12 12.4591L2.57898 4.94872H21.421ZM21.5 3H2.5C1.121 3 0 4.09226 0 5.4359V18.1026C0 19.4462 1.121 20.5385 2.5 20.5385H21.5C22.879 20.5385 24 19.4462 24 18.1026V5.4359C24 4.09226 22.879 3 21.5 3Z" fill="#31313D"/>
</svg>
