<svg width="26" height="24" viewBox="0 0 26 24" fill="none" xmlns="http://www.w3.org/2000/svg">
<path fill-rule="evenodd" clip-rule="evenodd" d="M9.47371 11.5C9.47371 10.121 10.6252 9 12.0395 9C13.4538 9 14.6053 10.121 14.6053 11.5C14.6053 12.879 13.4538 14 12.0395 14C10.6252 14 9.47371 12.879 9.47371 11.5ZM22.8158 10C21.5883 10 20.5343 10.709 20.0407 11.724L16.6466 11.393C16.6189 10.252 16.153 9.22 15.4068 8.441L17.0192 5.925C17.2337 5.972 17.4554 6 17.6842 6C19.3818 6 20.7632 4.654 20.7632 3C20.7632 1.346 19.3818 0 17.6842 0C15.9867 0 14.6053 1.346 14.6053 3C14.6053 3.704 14.866 4.344 15.2847 4.856L13.7083 7.316C13.189 7.118 12.6296 7 12.0395 7C11.0091 7 10.0659 7.342 9.29718 7.9L7.19734 6.108C7.33795 5.764 7.42108 5.392 7.42108 5C7.42108 3.346 6.03966 2 4.34213 2C2.6446 2 1.26318 3.346 1.26318 5C1.26318 6.654 2.6446 8 4.34213 8C4.8871 8 5.39308 7.849 5.83747 7.606L7.96708 9.424C7.62942 10.048 7.42108 10.747 7.42108 11.5C7.42108 12.332 7.66945 13.102 8.07587 13.772L5.84774 15.4C5.40129 15.153 4.89224 15 4.34213 15C2.6446 15 1.26318 16.346 1.26318 18C1.26318 19.654 2.6446 21 4.34213 21C6.03966 21 7.42108 19.654 7.42108 18C7.42108 17.614 7.34 17.248 7.2035 16.909L9.48295 15.243C10.2157 15.72 11.0943 16 12.0395 16C12.2899 16 12.5301 15.966 12.7702 15.928L13.7278 18.661C13.0176 19.211 12.5527 20.049 12.5527 21C12.5527 22.654 13.9341 24 15.6316 24C17.3291 24 18.7106 22.654 18.7106 21C18.7106 19.357 17.3476 18.022 15.6665 18.003L14.6782 15.184C15.3504 14.725 15.8861 14.096 16.232 13.363L19.8344 13.714C20.1659 15.023 21.3718 16 22.8158 16C24.5133 16 25.8948 14.654 25.8948 13C25.8948 11.346 24.5133 10 22.8158 10Z" fill="#31313D"/>
</svg>
