<svg width="24" height="24" viewBox="0 0 24 24" fill="none" xmlns="http://www.w3.org/2000/svg">
<path fill-rule="evenodd" clip-rule="evenodd" d="M16.6763 3.15103L14.5838 1.46344C13.6645 0.724034 12.3373 0.886989 11.6253 1.82669L0.666418 16.2922L0 22.9393L6.09387 20.6638L17.0508 6.20092C17.3964 5.74476 17.5481 5.17646 17.4773 4.60002C17.4067 4.02475 17.1232 3.50989 16.6763 3.15103ZM4.68789 18.6899L4.07794 18.9184L2.79543 17.8844L2.86191 17.2201L10.4693 7.17812L12.2954 8.64901L4.68789 18.6899ZM11.891 5.30981L13.7171 6.7807L15.1687 4.86481L13.3427 3.39509L11.891 5.30981ZM19.3771 15.9603H13.5923L11.3591 18.4514H19.3771V15.9603ZM23.9588 14.1248H14.159L16.3878 11.6337H23.9588V14.1248Z" fill="#31313D"/>
</svg>
