<svg width="25" height="24" viewBox="0 0 25 24" fill="none" xmlns="http://www.w3.org/2000/svg">
<path fill-rule="evenodd" clip-rule="evenodd" d="M10.7734 3.28297V2C10.7734 0.726154 11.7862 0 13.0207 0H22.0292C23.9666 0 25 0.157959 25 2V18H18.6991C18.3996 17.5667 18.0481 17.1691 17.6476 16.8142C17.2809 16.4899 16.8595 16.2216 16.4064 16H22.9167V3C22.9447 2.57151 22.7477 2.05915 21.875 2H13.5417C12.8067 2 12.5 2.31991 12.5 3V4.09615C11.9715 3.74654 11.3918 3.47056 10.7734 3.28297ZM8.85417 15C11.1878 15 13.5417 13.4538 13.5417 9.99949C13.5417 7.51096 12.0915 5 8.85316 5C6.51953 5 4.16667 6.54615 4.16667 9.99949C4.16667 12.489 5.61684 15 8.85417 15ZM8.92168 17.8594C11.3937 17.8594 13.2552 18.3016 14.1628 19.1046C15.0405 19.8828 15.5961 20.9471 15.7764 22.1933H2.06694C2.2473 20.9471 2.80285 19.8828 3.68056 19.1046C4.58816 18.3016 6.44965 17.8594 8.92168 17.8594ZM15.5642 17.8142C13.7596 16.2182 10.6289 15.9791 8.92168 15.9791C7.21451 15.9791 4.08372 16.2182 2.27913 17.8142C0.810185 19.1157 0 20.9923 0 23.097V23.9997H17.8434V23.097C17.8434 20.9923 17.0332 19.1157 15.5642 17.8142ZM6.26451 10.0066C6.26451 11.8294 7.28623 13.0071 8.86867 13.0071C10.4511 13.0071 11.4728 11.8294 11.4728 10.0066C11.4728 8.18485 10.4511 7.00714 8.86867 7.00714C7.28623 7.00714 6.26451 8.18485 6.26451 10.0066ZM19.7917 13H15.625V5H19.7917V13Z" fill="#31313D"/>
</svg>
