<svg width="25" height="24" viewBox="0 0 25 24" fill="none" xmlns="http://www.w3.org/2000/svg">
<path fill-rule="evenodd" clip-rule="evenodd" d="M19.5967 21.9892H5.65663C7.26157 20.1182 9.83345 18.973 12.6267 18.973C15.4199 18.973 17.9918 20.1182 19.5967 21.9892ZM12.4617 7.97105C12.4659 7.96803 12.4669 7.96401 12.4711 7.96099C12.5713 7.88458 12.657 7.79108 12.7248 7.6825C12.7447 7.64731 12.752 7.6081 12.7697 7.57191C12.799 7.50555 12.8355 7.44422 12.8512 7.37083C12.8533 7.35977 12.8491 7.34871 12.8512 7.33765C12.8648 7.26426 12.8554 7.19187 12.8512 7.11646C12.847 7.06016 12.8533 7.00285 12.8407 6.94856C12.8272 6.89025 12.7938 6.83797 12.7687 6.78267C12.7395 6.71732 12.7154 6.64996 12.6726 6.59265C12.6653 6.5826 12.6643 6.57154 12.657 6.56249C12.6246 6.52127 12.5797 6.50016 12.5421 6.46497C12.4889 6.41571 12.4408 6.36443 12.3771 6.32623C12.3134 6.28802 12.2445 6.26791 12.1756 6.24378C12.1265 6.22669 12.0858 6.19653 12.0336 6.18648C11.2932 6.04371 10.603 5.80141 9.97755 5.46762C9.97859 5.31782 9.99008 5.13082 10.0089 4.97397L10.2271 3.17935L8.52715 3.94646C8.42377 3.99271 8.3016 4.04097 8.18987 4.08119C7.51845 3.36535 7.08824 2.63946 6.81988 2.07141C10.7106 1.81906 12.0169 2.60326 13.0089 5.39825C13.0204 5.42942 13.0454 5.45053 13.0579 5.47969C13.0882 5.54202 13.1227 5.59832 13.1634 5.65362C13.2041 5.7069 13.2449 5.75516 13.2939 5.7984C13.3409 5.84062 13.391 5.87581 13.4453 5.90999C13.508 5.94719 13.5696 5.97735 13.6375 6.00249C13.6678 6.01355 13.6918 6.03567 13.7241 6.04371C13.7565 6.05175 13.7889 6.04472 13.8213 6.04974C13.8912 6.06181 13.9601 6.06482 14.0332 6.06281C14.1021 6.0598 14.169 6.05276 14.2358 6.03768C14.2682 6.02963 14.3026 6.03567 14.335 6.02461C14.3674 6.01355 14.3903 5.98942 14.4206 5.97635C14.4854 5.9482 14.5438 5.91502 14.6013 5.8748C14.6556 5.8376 14.7036 5.7984 14.7485 5.75215C14.7934 5.7059 14.832 5.65663 14.8675 5.60234C14.9062 5.54303 14.9365 5.48371 14.9626 5.41936C14.973 5.3892 14.997 5.36708 15.0054 5.33692C15.6194 3.15422 17.5543 2.1066 21.209 2.01812C20.9145 2.63543 20.4478 3.4126 19.7356 4.15458C19.6531 4.13749 19.5623 4.11537 19.4861 4.09225L18.1547 3.69612L18.1307 5.03631C18.1286 5.15897 18.115 5.30776 18.0983 5.42338C17.4509 5.7803 16.7346 6.03768 15.9619 6.18648C15.397 6.29606 15.0304 6.8259 15.1432 7.36982C15.2435 7.84839 15.6789 8.17816 16.1665 8.17816C16.2344 8.17816 16.3044 8.17112 16.3733 8.15805C17.0019 8.0364 17.5992 7.85341 18.1693 7.62117C19.3973 8.04142 20.736 8.93823 21.3667 11.5663C20.6002 11.5372 19.5236 11.4014 18.4377 10.954C18.4262 10.8696 18.4168 10.7751 18.4126 10.6946L18.351 9.36653L17.0416 9.78377C16.934 9.81795 16.7805 9.85615 16.6563 9.88028C16.0788 9.40071 15.5974 8.84373 15.1902 8.1862C15.1537 8.12588 15.0973 8.08767 15.0503 8.03841C15.0085 7.99316 14.9793 7.94088 14.9281 7.90268C14.925 7.90067 14.9218 7.90067 14.9198 7.89866C14.8279 7.8313 14.7214 7.78907 14.6138 7.75489C14.5929 7.74785 14.5741 7.73277 14.5532 7.72774C14.4436 7.7006 14.3298 7.69959 14.216 7.70763C14.1961 7.70964 14.1763 7.70261 14.1554 7.70462C14.1115 7.70964 14.0719 7.73478 14.0291 7.74584C13.9392 7.76796 13.8494 7.78806 13.768 7.83331C13.7649 7.83532 13.7617 7.83532 13.7586 7.83733C13.7012 7.87051 13.6636 7.92078 13.6145 7.963C13.5654 8.00523 13.507 8.03539 13.4652 8.08868C13.462 8.0927 13.46 8.09672 13.4568 8.10175C13.4527 8.10577 13.4495 8.1108 13.4464 8.11482C11.1721 10.9993 11.8268 14.9233 12.4053 16.9763C11.5522 16.9924 10.72 17.101 9.91594 17.286C9.61521 15.3486 9.21214 10.3619 12.4617 7.97105ZM14.4029 10.5489C14.7663 10.948 15.162 11.313 15.5912 11.6417C15.7113 11.7342 15.988 11.9152 16.5424 11.9142C16.7137 12.3153 16.957 12.4943 17.1731 12.6059C18.9243 13.4283 20.6618 13.5831 21.7217 13.5831C22.3284 13.5831 22.7147 13.5329 22.7555 13.5268L23.7819 13.3851L23.643 12.3968C23.2212 9.3977 22.0214 7.38591 20.0259 6.26289C20.0353 6.23876 20.0468 6.22368 20.0541 6.19854C20.5188 6.17642 20.7715 6.00651 20.9365 5.84967C23.1157 3.78761 23.6764 1.33647 23.7005 1.23291L23.9584 0.0626374L22.7168 0.0184002C19.7972 -0.0811335 16.0015 0.143069 14.0144 2.72894C12.2863 0.0616319 9.55778 -0.251045 5.28803 0.183284L4.15925 0.297899L4.37227 1.37166C4.39106 1.46918 4.87035 3.77957 7.059 5.84967C7.30125 6.0789 7.60094 6.19955 7.96432 6.18044C8.08023 6.63086 8.30578 6.83998 8.52088 6.97169C8.94483 7.23108 9.39488 7.45126 9.86582 7.63927C6.98591 11.0496 7.58737 16.1831 7.90585 17.9335C5.68274 18.8886 3.85016 20.4952 2.81223 22.5553L2.08337 24H23.171L22.4422 22.5553C21.0054 19.706 18.0545 17.7203 14.6368 17.1493C14.2536 16.0283 13.4025 13.003 14.4029 10.5489Z" fill="#31313D"/>
</svg>
